<svg width="51" height="50" viewBox="0 0 51 50" fill="none" xmlns="http://www.w3.org/2000/svg">
<g clip-path="url(#clip0_2238_11)">
<path d="M27.6281 39.564V31.217H19.2801V22.869H10.9331V13L1.72009 22.218C0.938761 23.0016 0.5 24.063 0.5 25.1695C0.5 26.276 0.938761 27.3374 1.72009 28.121L22.3741 48.781C23.1575 49.5614 24.2183 49.9996 25.3241 49.9996C26.4299 49.9996 27.4907 49.5614 28.2741 48.781L28.2841 48.787L37.5001 39.565L27.6281 39.564Z" fill="#FE0000"/>
<path fill-rule="evenodd" clip-rule="evenodd" d="M28.411 2.28009e-06H46.383C47.4748 0.00211885 48.5212 0.436964 49.2929 1.20924C50.0646 1.98152 50.4987 3.02824 50.5 4.12V22.088C50.5 24.354 49.194 27.515 47.59 29.117L41.71 35H31.97V26.764H23.735V18.53H15.5V8.794L21.383 2.912C22.987 1.312 26.149 -0.00199772 28.411 2.28009e-06ZM38.686 11.818C39.2659 12.3968 40.0517 12.7218 40.871 12.7218C41.6903 12.7218 42.4761 12.3968 43.056 11.818C43.6336 11.2375 43.9576 10.4518 43.957 9.63288C43.9565 8.81399 43.6314 8.0287 43.053 7.449C42.468 6.89795 41.6913 6.5965 40.8878 6.6086C40.0842 6.62069 39.317 6.94538 38.7488 7.51379C38.1807 8.08219 37.8563 8.84958 37.8446 9.65316C37.8329 10.4567 38.1347 11.2333 38.686 11.818Z" fill="#FE0000"/>
</g>
<defs>
<clipPath id="clip0_2238_11">
<rect width="50" height="50" fill="white" transform="translate(0.5)"/>
</clipPath>
</defs>
</svg>
