<svg width="44" height="50" viewBox="0 0 44 50" fill="none" xmlns="http://www.w3.org/2000/svg">
<g clip-path="url(#clip0_2238_29)">
<path fill-rule="evenodd" clip-rule="evenodd" d="M23.265 50L22.632 42.5H22C16.014 42.5 10.934 40.437 6.76 36.312C2.587 32.188 0.5 27.168 0.5 21.25C0.5 15.332 2.587 10.312 6.76 6.187C10.934 2.063 16.014 0 22 0C24.993 0 27.786 0.552 30.377 1.655C32.9233 2.7286 35.2419 4.27718 37.209 6.218C39.1653 8.15154 40.7318 10.4431 41.823 12.968C42.941 15.53 43.5 18.291 43.5 21.25C43.5 24.375 42.984 27.375 41.952 30.25C40.9288 33.1052 39.5019 35.7992 37.715 38.25C35.923 40.708 33.794 42.938 31.328 44.938C28.8532 46.9428 26.1461 48.6423 23.265 50ZM22 35C22.3291 35.0052 22.6557 34.9429 22.9598 34.817C23.2638 34.6911 23.5389 34.5043 23.768 34.268C24.0043 34.0389 24.1911 33.7638 24.317 33.4598C24.4429 33.1557 24.5052 32.8291 24.5 32.5C24.5052 32.1709 24.4429 31.8443 24.317 31.5402C24.1911 31.2362 24.0043 30.9611 23.768 30.732C23.5389 30.4957 23.2638 30.3089 22.9598 30.183C22.6557 30.0571 22.3291 29.9948 22 30C21.6709 29.9948 21.3443 30.0571 21.0402 30.183C20.7362 30.3089 20.4611 30.4957 20.232 30.732C19.9957 30.9611 19.8089 31.2362 19.683 31.5402C19.5571 31.8443 19.4948 32.1709 19.5 32.5C19.5 33.191 19.744 33.78 20.232 34.268C20.4611 34.5043 20.7362 34.6911 21.0402 34.817C21.3443 34.9429 21.6709 35.0052 22 35ZM20.06 27H23.94C23.94 25.75 24.069 24.875 24.328 24.375C24.586 23.875 25.405 22.958 26.785 21.625C27.5384 20.9033 28.191 20.0833 28.725 19.187C29.2348 18.3378 29.5028 17.3654 29.5 16.375C29.5 14.25 28.757 12.655 27.27 11.592C25.784 10.531 24.027 10 22 10C20.103 10 18.509 10.51 17.215 11.53C15.922 12.552 15.017 13.792 14.5 15.25L18.12 16.625C18.336 15.917 18.746 15.218 19.35 14.53C19.953 13.843 20.836 13.5 22 13.5C23.164 13.5 24.037 13.813 24.62 14.438C25.2 15.062 25.491 15.75 25.491 16.5C25.4973 17.1898 25.2696 17.8613 24.845 18.405C24.371 19.016 23.8523 19.591 23.293 20.125C21.785 21.375 20.869 22.365 20.547 23.093C20.222 23.823 20.06 25.125 20.06 27Z" fill="#FE0000"/>
</g>
<defs>
<clipPath id="clip0_2238_29">
<rect width="43" height="50" fill="white" transform="translate(0.5)"/>
</clipPath>
</defs>
</svg>
