<svg width="26" height="36" viewBox="0 0 26 36" fill="none" xmlns="http://www.w3.org/2000/svg">
<g clip-path="url(#clip0_2238_19)">
<path fill-rule="evenodd" clip-rule="evenodd" d="M15.375 16.714L14.693 8.73399L21.208 16.497L21.57 16.929L15.375 16.714ZM4.123 31.608H20.993V19.897H4.122L4.123 31.608ZM24.748 16.93L24.672 16.842L24.655 16.825L14.552 5.18499L14.272 4.86499C14.0615 4.69275 13.797 4.60033 13.525 4.60399H10.025V3.79399H4.583V4.60399H1.667C1.025 4.60299 0.5 5.09599 0.5 5.71199V34.08C0.5 34.696 1.025 35.19 1.667 35.19H23.833C24.475 35.19 25 34.696 25 34.08V17.606C25 17.346 24.907 17.112 24.75 16.929L24.748 16.93ZM14.553 5.18499L14.273 4.86299C14.39 4.95099 14.483 5.06299 14.553 5.18499ZM4.123 3.23699H10.491V0.856995H4.123V3.23699Z" fill="#FE0000"/>
</g>
<defs>
<clipPath id="clip0_2238_19">
<rect width="25" height="36" fill="white" transform="translate(0.5)"/>
</clipPath>
</defs>
</svg>
