<svg width="36" height="35" viewBox="0 0 36 35" fill="none" xmlns="http://www.w3.org/2000/svg">
<g clip-path="url(#clip0_2238_38)">
<path d="M35.5 4.375C35.5 6.793 32.02 8.75 27.723 8.75C23.428 8.75 19.945 6.793 19.945 4.375C19.945 1.958 23.428 0 27.723 0C32.021 0 35.5 1.958 35.5 4.375ZM19.945 8.75C21.854 10.064 24.583 10.864 27.723 10.864C30.862 10.864 33.593 10.064 35.501 8.75V11.93C33.333 12.994 30.671 13.611 27.723 13.611C24.776 13.611 22.113 12.994 19.945 11.929V8.75ZM23.833 24.791C23.833 27.21 20.353 29.166 16.055 29.166C11.76 29.166 8.277 27.21 8.277 24.791C8.277 22.375 11.76 20.416 16.055 20.416C20.353 20.416 23.833 22.375 23.833 24.791ZM27.48 23.503C27.227 23.503 26.996 23.466 26.75 23.457V26.213C26.995 26.221 27.23 26.25 27.48 26.25C30.518 26.25 33.264 25.633 35.5 24.568V21.388C33.533 22.702 30.716 23.503 27.48 23.503ZM27.48 28.364C27.227 28.364 26.996 28.328 26.75 28.318V31.074C26.995 31.082 27.23 31.111 27.48 31.111C30.518 31.111 33.264 30.494 35.5 29.429V26.25C33.533 27.563 30.716 28.364 27.48 28.364ZM8.277 30.139C10.186 31.452 12.915 32.253 16.055 32.253C19.195 32.253 21.925 31.452 23.833 30.139V33.318C21.665 34.383 19.002 35 16.055 35C13.108 35 10.445 34.383 8.277 33.318V30.139ZM7.792 8.75H4.875C4.6835 8.75013 4.49384 8.71251 4.31689 8.63928C4.13994 8.56606 3.97916 8.45867 3.84374 8.32325C3.70833 8.18784 3.60094 8.02706 3.52772 7.85011C3.45449 7.67316 3.41687 7.4835 3.417 7.292C3.417 6.485 4.069 5.833 4.875 5.833H7.792C8.598 5.833 9.25 6.485 9.25 7.292H12.167C12.1667 6.13176 11.7057 5.01911 10.8853 4.1987C10.0649 3.37829 8.95224 2.91727 7.792 2.917V0H4.875V2.917C3.73087 2.94146 2.64186 3.41315 1.84135 4.23095C1.04084 5.04876 0.592547 6.14761 0.592547 7.292C0.592547 8.43639 1.04084 9.53524 1.84135 10.353C2.64186 11.1709 3.73087 11.6425 4.875 11.667H7.792C8.598 11.667 9.25 12.319 9.25 13.125H9.247C9.247 13.931 8.595 14.583 7.789 14.583H4.875C4.6835 14.5831 4.49384 14.5455 4.31689 14.4723C4.13994 14.3991 3.97916 14.2917 3.84374 14.1563C3.70833 14.0208 3.60094 13.8601 3.52772 13.6831C3.45449 13.5062 3.41687 13.3165 3.417 13.125H0.5C0.500265 14.2852 0.961286 15.3979 1.7817 16.2183C2.60211 17.0387 3.71476 17.4997 4.875 17.5V20.417H7.792V17.5C8.9518 17.4992 10.0638 17.0379 10.8837 16.2175C11.7035 15.3971 12.164 14.2848 12.164 13.125H12.167C12.1667 11.9648 11.7057 10.8521 10.8853 10.0317C10.0649 9.21129 8.95224 8.75027 7.792 8.75ZM19.945 15.556C21.854 16.869 24.583 17.67 27.723 17.67C30.862 17.67 33.593 16.869 35.501 15.556V18.735C33.333 19.799 30.671 20.417 27.723 20.417C24.776 20.417 22.113 19.799 19.945 18.735V15.556Z" fill="#FE0000"/>
</g>
<defs>
<clipPath id="clip0_2238_38">
<rect width="35" height="35" fill="white" transform="translate(0.5)"/>
</clipPath>
</defs>
</svg>
