<svg width="33" height="35" viewBox="0 0 33 35" fill="none" xmlns="http://www.w3.org/2000/svg">
<g clip-path="url(#clip0_2238_21)">
<path fill-rule="evenodd" clip-rule="evenodd" d="M0.5 35V3.5H5.833V0H9.39V3.5H23.61V0H27.166V3.5H32.5V35H0.5ZM7.611 17.5V21H11.167V17.5H7.611ZM14.722 17.5V21H18.278V17.5H14.722ZM21.833 21V17.5H25.389V21H21.833ZM14.723 24.5V28H18.278V24.5H14.723ZM7.61 28V24.5H11.166V28H7.61ZM21.832 24.5V28H25.388V24.5H21.832ZM28.943 31.5H4.056V14H28.944L28.943 31.5Z" fill="#FE0000"/>
</g>
<defs>
<clipPath id="clip0_2238_21">
<rect width="32" height="35" fill="white" transform="translate(0.5)"/>
</clipPath>
</defs>
</svg>
